<svg xmlns="http://www.w3.org/2000/svg" width="24.328" height="11.333" viewBox="0 0 24.328 11.333">
  <g id="Battery" transform="translate(-336 -17.333)">
    <g id="Shape" transform="translate(0 44)" fill="none" fill-rule="evenodd" opacity="0.35">
      <path d="M338.667-26.667h16.667A2.667,2.667,0,0,1,358-24v6h0a2.667,2.667,0,0,1-2.667,2.667H338.667A2.667,2.667,0,0,1,336-18v-6h0A2.667,2.667,0,0,1,338.667-26.667Z" stroke="none"/>
      <path d="M 338.6666870117188 -25.66666984558105 C 337.7476806640625 -25.66666984558105 337 -24.91900062561035 337 -24 L 337 -18 C 337 -17.08099937438965 337.7476806640625 -16.33333015441895 338.6666870117188 -16.33333015441895 L 355.3333129882813 -16.33333015441895 C 356.2523193359375 -16.33333015441895 357 -17.08099937438965 357 -18 L 357 -24 C 357 -24.91900062561035 356.2523193359375 -25.66666984558105 355.3333129882813 -25.66666984558105 L 338.6666870117188 -25.66666984558105 M 338.6666870117188 -26.66666984558105 L 355.3333129882813 -26.66666984558105 C 356.8060913085938 -26.66666984558105 358 -25.47275924682617 358 -24 L 358 -18 C 358 -16.52724075317383 356.8060913085938 -15.33333015441895 355.3333129882813 -15.33333015441895 L 338.6666870117188 -15.33333015441895 C 337.1939086914063 -15.33333015441895 336 -16.52724075317383 336 -18 L 336 -24 C 336 -25.47275924682617 337.1939086914063 -26.66666984558105 338.6666870117188 -26.66666984558105 Z" stroke="none" fill="#343638"/>
    </g>
    <path id="Shape-2" data-name="Shape" d="M359-23v4a2.17,2.17,0,0,0,1.328-2A2.17,2.17,0,0,0,359-23" transform="translate(0 44)" fill="#343638"/>
    <path id="Shape-3" data-name="Shape" d="M339.333-24.667h15.333A1.333,1.333,0,0,1,356-23.333v4.667h0a1.333,1.333,0,0,1-1.333,1.333H339.333A1.333,1.333,0,0,1,338-18.667v-4.667h0A1.333,1.333,0,0,1,339.333-24.667Z" transform="translate(0 44)" fill="#343638"/>
  </g>
</svg>
