<svg xmlns="http://www.w3.org/2000/svg" width="15.272" height="10.966" viewBox="0 0 15.272 10.966">
  <path id="Shape" d="M323.33-24.392a8.64,8.64,0,0,1,5.953,2.378.308.308,0,0,0,.433,0l1.156-1.167a.322.322,0,0,0,.093-.229.322.322,0,0,0-.1-.227,10.9,10.9,0,0,0-15.08,0,.322.322,0,0,0-.1.227.322.322,0,0,0,.093.229l1.156,1.167a.308.308,0,0,0,.433,0,8.641,8.641,0,0,1,5.954-2.378Zm0,3.8a4.907,4.907,0,0,1,3.294,1.27.31.31,0,0,0,.433-.006l1.155-1.167a.322.322,0,0,0,.094-.23.322.322,0,0,0-.1-.229,7.159,7.159,0,0,0-9.752,0,.322.322,0,0,0-.1.229.322.322,0,0,0,.094.23l1.154,1.167a.31.31,0,0,0,.433.006,4.907,4.907,0,0,1,3.292-1.27Zm2.219,2.784a.314.314,0,0,0,.094-.231.314.314,0,0,0-.1-.226,3.422,3.422,0,0,0-4.419,0,.314.314,0,0,0-.1.226.314.314,0,0,0,.094.231l2,2.016a.311.311,0,0,0,.222.093.312.312,0,0,0,.222-.093Z" transform="translate(-315.694 26.669)" fill="#343638"/>
</svg>
